<mxfile host="app.diagrams.net" agent="Mozilla/5.0 (Windows NT 10.0; Win64; x64) AppleWebKit/537.36 (KHTML, like Gecko) Chrome/131.0.0.0 Safari/537.36" version="25.0.3">
  <diagram id="C5RBs43oDa-KdzZeNtuy" name="Page-1">
    <mxGraphModel dx="792" dy="1097" grid="1" gridSize="10" guides="1" tooltips="1" connect="1" arrows="1" fold="1" page="1" pageScale="1" pageWidth="827" pageHeight="1169" math="0" shadow="0">
      <root>
        <mxCell id="WIyWlLk6GJQsqaUBKTNV-0" />
        <mxCell id="WIyWlLk6GJQsqaUBKTNV-1" parent="WIyWlLk6GJQsqaUBKTNV-0" />
        <mxCell id="KUqJQctToQfrZSQbGojt-0" value="Home" style="rounded=1;whiteSpace=wrap;html=1;fillColor=#66B2FF;" vertex="1" parent="WIyWlLk6GJQsqaUBKTNV-1">
          <mxGeometry x="400" y="100" width="120" height="60" as="geometry" />
        </mxCell>
        <mxCell id="KUqJQctToQfrZSQbGojt-19" style="edgeStyle=orthogonalEdgeStyle;rounded=0;orthogonalLoop=1;jettySize=auto;html=1;exitX=0;exitY=0.5;exitDx=0;exitDy=0;entryX=0;entryY=0.5;entryDx=0;entryDy=0;" edge="1" parent="WIyWlLk6GJQsqaUBKTNV-1" source="KUqJQctToQfrZSQbGojt-1" target="KUqJQctToQfrZSQbGojt-17">
          <mxGeometry relative="1" as="geometry" />
        </mxCell>
        <mxCell id="KUqJQctToQfrZSQbGojt-20" style="edgeStyle=orthogonalEdgeStyle;rounded=0;orthogonalLoop=1;jettySize=auto;html=1;exitX=0;exitY=0.5;exitDx=0;exitDy=0;entryX=0;entryY=0.5;entryDx=0;entryDy=0;" edge="1" parent="WIyWlLk6GJQsqaUBKTNV-1" source="KUqJQctToQfrZSQbGojt-1" target="KUqJQctToQfrZSQbGojt-18">
          <mxGeometry relative="1" as="geometry" />
        </mxCell>
        <mxCell id="KUqJQctToQfrZSQbGojt-1" value="Blog" style="rounded=1;whiteSpace=wrap;html=1;fillColor=#33FF33;" vertex="1" parent="WIyWlLk6GJQsqaUBKTNV-1">
          <mxGeometry x="490" y="220" width="120" height="60" as="geometry" />
        </mxCell>
        <mxCell id="KUqJQctToQfrZSQbGojt-21" style="edgeStyle=orthogonalEdgeStyle;rounded=0;orthogonalLoop=1;jettySize=auto;html=1;exitX=0;exitY=0.5;exitDx=0;exitDy=0;entryX=0;entryY=0.5;entryDx=0;entryDy=0;" edge="1" parent="WIyWlLk6GJQsqaUBKTNV-1" source="KUqJQctToQfrZSQbGojt-2" target="KUqJQctToQfrZSQbGojt-14">
          <mxGeometry relative="1" as="geometry" />
        </mxCell>
        <mxCell id="KUqJQctToQfrZSQbGojt-22" style="edgeStyle=orthogonalEdgeStyle;rounded=0;orthogonalLoop=1;jettySize=auto;html=1;exitX=0;exitY=0.5;exitDx=0;exitDy=0;entryX=0;entryY=0.5;entryDx=0;entryDy=0;" edge="1" parent="WIyWlLk6GJQsqaUBKTNV-1" source="KUqJQctToQfrZSQbGojt-2" target="KUqJQctToQfrZSQbGojt-16">
          <mxGeometry relative="1" as="geometry" />
        </mxCell>
        <mxCell id="KUqJQctToQfrZSQbGojt-23" style="edgeStyle=orthogonalEdgeStyle;rounded=0;orthogonalLoop=1;jettySize=auto;html=1;exitX=0;exitY=0.5;exitDx=0;exitDy=0;entryX=0;entryY=0.5;entryDx=0;entryDy=0;" edge="1" parent="WIyWlLk6GJQsqaUBKTNV-1" source="KUqJQctToQfrZSQbGojt-2" target="KUqJQctToQfrZSQbGojt-15">
          <mxGeometry relative="1" as="geometry" />
        </mxCell>
        <mxCell id="KUqJQctToQfrZSQbGojt-2" value="Portfolio" style="rounded=1;whiteSpace=wrap;html=1;fillColor=#33FF33;" vertex="1" parent="WIyWlLk6GJQsqaUBKTNV-1">
          <mxGeometry x="330" y="220" width="120" height="60" as="geometry" />
        </mxCell>
        <mxCell id="KUqJQctToQfrZSQbGojt-3" value="Skills" style="rounded=1;whiteSpace=wrap;html=1;fillColor=#33FF33;" vertex="1" parent="WIyWlLk6GJQsqaUBKTNV-1">
          <mxGeometry x="170" y="220" width="120" height="60" as="geometry" />
        </mxCell>
        <mxCell id="KUqJQctToQfrZSQbGojt-4" value="Contact Me" style="rounded=1;whiteSpace=wrap;html=1;fillColor=#33FF33;" vertex="1" parent="WIyWlLk6GJQsqaUBKTNV-1">
          <mxGeometry x="650" y="220" width="120" height="60" as="geometry" />
        </mxCell>
        <mxCell id="KUqJQctToQfrZSQbGojt-10" value="" style="endArrow=none;html=1;rounded=0;entryX=0.5;entryY=1;entryDx=0;entryDy=0;exitX=0.5;exitY=0;exitDx=0;exitDy=0;" edge="1" parent="WIyWlLk6GJQsqaUBKTNV-1" source="KUqJQctToQfrZSQbGojt-2" target="KUqJQctToQfrZSQbGojt-0">
          <mxGeometry width="50" height="50" relative="1" as="geometry">
            <mxPoint x="310" y="290" as="sourcePoint" />
            <mxPoint x="360" y="240" as="targetPoint" />
          </mxGeometry>
        </mxCell>
        <mxCell id="KUqJQctToQfrZSQbGojt-11" value="" style="endArrow=none;html=1;rounded=0;entryX=0.5;entryY=1;entryDx=0;entryDy=0;exitX=0.5;exitY=0;exitDx=0;exitDy=0;" edge="1" parent="WIyWlLk6GJQsqaUBKTNV-1" source="KUqJQctToQfrZSQbGojt-3" target="KUqJQctToQfrZSQbGojt-0">
          <mxGeometry width="50" height="50" relative="1" as="geometry">
            <mxPoint x="310" y="290" as="sourcePoint" />
            <mxPoint x="360" y="240" as="targetPoint" />
          </mxGeometry>
        </mxCell>
        <mxCell id="KUqJQctToQfrZSQbGojt-12" value="" style="endArrow=none;html=1;rounded=0;entryX=0.5;entryY=1;entryDx=0;entryDy=0;exitX=0.5;exitY=0;exitDx=0;exitDy=0;" edge="1" parent="WIyWlLk6GJQsqaUBKTNV-1" source="KUqJQctToQfrZSQbGojt-1" target="KUqJQctToQfrZSQbGojt-0">
          <mxGeometry width="50" height="50" relative="1" as="geometry">
            <mxPoint x="310" y="290" as="sourcePoint" />
            <mxPoint x="360" y="240" as="targetPoint" />
          </mxGeometry>
        </mxCell>
        <mxCell id="KUqJQctToQfrZSQbGojt-13" value="" style="endArrow=none;html=1;rounded=0;entryX=0.5;entryY=1;entryDx=0;entryDy=0;exitX=0.5;exitY=0;exitDx=0;exitDy=0;" edge="1" parent="WIyWlLk6GJQsqaUBKTNV-1" source="KUqJQctToQfrZSQbGojt-4" target="KUqJQctToQfrZSQbGojt-0">
          <mxGeometry width="50" height="50" relative="1" as="geometry">
            <mxPoint x="310" y="290" as="sourcePoint" />
            <mxPoint x="360" y="240" as="targetPoint" />
          </mxGeometry>
        </mxCell>
        <mxCell id="KUqJQctToQfrZSQbGojt-14" value="Eventos Premium" style="rounded=1;whiteSpace=wrap;html=1;fillColor=#FF33FF;" vertex="1" parent="WIyWlLk6GJQsqaUBKTNV-1">
          <mxGeometry x="330" y="300" width="120" height="60" as="geometry" />
        </mxCell>
        <mxCell id="KUqJQctToQfrZSQbGojt-15" value="A&amp;amp;C App" style="rounded=1;whiteSpace=wrap;html=1;fillColor=#FF33FF;" vertex="1" parent="WIyWlLk6GJQsqaUBKTNV-1">
          <mxGeometry x="330" y="460" width="120" height="60" as="geometry" />
        </mxCell>
        <mxCell id="KUqJQctToQfrZSQbGojt-16" value="Mi Portaf U" style="rounded=1;whiteSpace=wrap;html=1;fillColor=#FF33FF;" vertex="1" parent="WIyWlLk6GJQsqaUBKTNV-1">
          <mxGeometry x="330" y="380" width="120" height="60" as="geometry" />
        </mxCell>
        <mxCell id="KUqJQctToQfrZSQbGojt-17" value="S2" style="rounded=1;whiteSpace=wrap;html=1;fillColor=#FF33FF;" vertex="1" parent="WIyWlLk6GJQsqaUBKTNV-1">
          <mxGeometry x="490" y="380" width="120" height="60" as="geometry" />
        </mxCell>
        <mxCell id="KUqJQctToQfrZSQbGojt-18" value="S1" style="rounded=1;whiteSpace=wrap;html=1;fillColor=#FF33FF;" vertex="1" parent="WIyWlLk6GJQsqaUBKTNV-1">
          <mxGeometry x="490" y="300" width="120" height="60" as="geometry" />
        </mxCell>
      </root>
    </mxGraphModel>
  </diagram>
</mxfile>
